<?xml version="1.0" encoding="UTF-8"?>
<svg id="Camada_2" data-name="Camada 2" xmlns="http://www.w3.org/2000/svg" viewBox="0 0 679.24 567.75">
  <defs>
    <style>
      .cls-1 {
        fill: #efea45;
      }
    </style>
  </defs>
  <g id="Camada_1-2" data-name="Camada 1">
    <path class="cls-1" d="M523.92,177.76c0-14.99-12.15-27.14-27.14-27.14H14.99c-8.27,0-14.99,11.06-14.99,24.72v79.57h387.52l-131.54,151.69h110.33l133.05-151.69,24.57-28.33v-48.82Z"/>
    <path class="cls-1" d="M136.41,463.47l131.54-151.69h-110.33L24.57,463.47,0,491.8l1.51,75.95h507.3c8.34,0,15.11-11.16,15.11-24.93v-79.35H136.41Z"/>
    <rect class="cls-1" x="573.48" y="181.73" width="105.76" height="49.69"/>
    <rect class="cls-1" x="454.39" width="49.69" height="105.76"/>
    <path class="cls-1" d="M564.09,149.16l73.81-73.81-35.14-35.14-73.81,73.81c13.66,9.59,25.55,21.48,35.14,35.14"/>
  </g>
</svg>