<?xml version="1.0" encoding="UTF-8"?>
<svg id="Camada_2" data-name="Camada 2" xmlns="http://www.w3.org/2000/svg" viewBox="0 0 727.16 169.25">
  <defs>
    <style>
      .cls-1 {
        fill: #efea45;
      }

      .cls-2 {
        fill: #fff;
      }
    </style>
  </defs>
  <g id="BACKGROUND">
    <g>
      <g>
        <path class="cls-2" d="M127.28,156.65v-8.82c0-3.3,2.56-5.07,7.41-5.07s7.41,1.78,7.41,5.07v8.82c0,3.3-2.56,5.08-7.41,5.08s-7.41-1.78-7.41-5.08ZM138.58,156.35v-8.23c0-1.67-1.26-2.48-3.89-2.48s-3.89.82-3.89,2.48v8.23c0,1.67,1.26,2.48,3.89,2.48s3.89-.82,3.89-2.48Z"/>
        <path class="cls-2" d="M155.11,143.05c.48,0,.67.19.7.74l.07,1.15c1.93-1.48,3.93-2.19,6.15-2.19,3.41,0,5.23,1.78,5.23,5.04v8.89c0,3.26-1.82,5.04-5.23,5.04-2.22,0-4.26-.7-6.08-2.08v8.63c0,.48-.22.7-.67.7h-2.15c-.48,0-.7-.22-.7-.7v-24.49c0-.55.22-.74.7-.74h1.96ZM163.75,156.13v-7.78c0-1.59-.93-2.41-2.74-2.41-1.67,0-3.37.63-5.04,1.93v8.78c1.82,1.33,3.41,1.89,5.04,1.89,1.82,0,2.74-.82,2.74-2.41Z"/>
        <path class="cls-2" d="M191.54,147.83v4.52c0,.45-.18.67-.63.67h-10.08v3.41c0,1.78,1.15,2.48,3.7,2.48s3.71-.7,3.71-2.48v-.41c0-.48.22-.7.7-.7h1.89c.48,0,.7.22.7.7v.63c0,3.41-2.33,5.08-7.08,5.08s-7.08-1.67-7.08-5.08v-8.82c0-3.41,2.37-5.07,7.15-5.07s7,1.67,7,5.07ZM180.83,148.05v2.33h7.41v-2.33c0-1.67-1.19-2.48-3.71-2.48s-3.7.82-3.7,2.48Z"/>
        <path class="cls-2" d="M211.74,143.46v1.71c0,.48-.19.7-.74.74-2.08.11-4.26,1.07-5.74,2.37v12.41c0,.55-.18.74-.67.74h-2.15c-.48,0-.7-.19-.7-.74v-16.93c0-.48.22-.7.7-.7h1.96c.48,0,.67.15.7.7l.11,1.59c1.63-1.63,3.7-2.59,5.78-2.59.48,0,.74.22.74.7Z"/>
        <path class="cls-2" d="M219.72,147.76c0-3.3,2.37-5,7-5s7,1.63,7,5v12.93c0,.55-.19.74-.67.74h-1.93c-.48,0-.67-.19-.7-.74l-.07-1.07c-1.78,1.37-3.74,2.11-5.85,2.11-3.15,0-5.22-1.82-5.22-4.48v-1.78c0-2.67,2-4.48,5.15-4.48h5.86v-2.85c0-1.78-1.11-2.52-3.59-2.52s-3.67.74-3.67,2.41v.3c0,.56-.22.74-.7.74h-1.93c-.48,0-.67-.19-.67-.74v-.55ZM230.28,156.91v-3.19h-5.11c-1.67,0-2.45.67-2.45,2.26v.74c0,1.45.78,2.08,2.67,2.08,1.63,0,3.3-.67,4.89-1.89Z"/>
        <path class="cls-2" d="M250.96,161.73l-.45,1.63h1.26c1.93,0,3.15,1.11,3.15,2.93s-1.22,2.96-3.15,2.96h-4.19c-.48,0-.7-.22-.7-.7v-.74c0-.45.22-.67.7-.67h3.67c.89,0,1.19-.26,1.19-.85,0-.56-.3-.82-1.19-.82h-2.44c-.85,0-1.11-.26-.96-.89l.78-3.04c-3.11-.48-4.63-2.11-4.63-4.89v-8.82c0-3.41,2.37-5.07,7.11-5.07s7.08,1.67,7.08,5.07v.67c0,.48-.19.7-.67.7h-2c-.48,0-.7-.22-.7-.7v-.41c0-1.74-1.11-2.44-3.67-2.44s-3.63.7-3.63,2.44v8.3c0,1.74,1.11,2.45,3.63,2.45s3.67-.7,3.67-2.45v-.74c0-.48.22-.7.7-.7h2c.45,0,.67.22.67.7v1c0,3.41-2.37,5.08-7.11,5.08h-.11Z"/>
        <path class="cls-2" d="M267.57,156.65v-8.82c0-3.3,2.56-5.07,7.41-5.07s7.41,1.78,7.41,5.07v8.82c0,3.3-2.56,5.08-7.41,5.08s-7.41-1.78-7.41-5.08ZM275.39,139.83l-1.59-.96c-1.07-.63-1.3-.7-1.48-.7-.56,0-.7.18-.7,1.41v.26c0,.45-.19.63-.74.63h-1.19c-.45,0-.59-.22-.59-.82l.04-1.19c.04-1.82,1.22-2.96,2.96-2.96.74,0,1.59.26,2.19.59l1.59.96c1.07.63,1.3.7,1.48.7.56,0,.7-.22.7-1.41v-.26c0-.44.22-.63.78-.63h1.15c.45,0,.59.26.59.82l-.04,1.19c-.04,1.82-1.26,2.96-3,2.96-.63,0-1.56-.26-2.15-.59ZM278.87,156.35v-8.23c0-1.67-1.26-2.48-3.89-2.48s-3.89.82-3.89,2.48v8.23c0,1.67,1.26,2.48,3.89,2.48s3.89-.82,3.89-2.48Z"/>
        <path class="cls-2" d="M306.59,147.83v4.52c0,.45-.18.67-.63.67h-10.08v3.41c0,1.78,1.15,2.48,3.7,2.48s3.71-.7,3.71-2.48v-.41c0-.48.22-.7.7-.7h1.89c.48,0,.7.22.7.7v.63c0,3.41-2.33,5.08-7.08,5.08s-7.08-1.67-7.08-5.08v-8.82c0-3.41,2.37-5.07,7.15-5.07s7,1.67,7,5.07ZM295.88,148.05v2.33h7.41v-2.33c0-1.67-1.19-2.48-3.71-2.48s-3.7.82-3.7,2.48Z"/>
        <path class="cls-2" d="M326.46,147.31c0-1.3-1.19-1.96-3.52-1.96s-3.45.63-3.45,1.96v.63c0,.74.56,1.37,1.56,1.71l5.56,1.93c2.19.74,3.34,2,3.34,3.63v2.08c0,2.71-2.63,4.45-7.04,4.45s-7-1.74-7-4.45v-.93c0-.45.19-.67.63-.67h1.96c.45,0,.63.18.63.67v.78c0,1.3,1.3,1.96,3.78,1.96s3.78-.67,3.78-1.96v-1c0-.78-.52-1.3-1.96-1.78l-5.56-1.93c-1.63-.56-2.89-2.11-2.89-3.74v-1.37c0-2.82,2.41-4.56,6.71-4.56s6.71,1.74,6.71,4.56v.89c0,.48-.18.67-.67.67h-1.93c-.44,0-.63-.18-.63-.67v-.89Z"/>
        <path class="cls-2" d="M364.34,159.58c-1.96,1.48-3.93,2.15-6.15,2.15-3.41,0-5.22-1.78-5.22-5.04v-8.89c0-3.26,1.82-5.04,5.22-5.04,2.11,0,4.04.63,6.08,2.11v-8.6c0-.56.18-.74.67-.74h2.15c.48,0,.7.18.7.74v24.42c0,.55-.22.74-.7.74h-1.96c-.48,0-.67-.19-.7-.74l-.07-1.11ZM356.48,148.35v7.78c0,1.59.93,2.41,2.74,2.41,1.63,0,3.26-.59,5.04-1.89v-8.78c-1.63-1.22-3.37-1.93-5.04-1.93-1.82,0-2.74.82-2.74,2.41Z"/>
        <path class="cls-2" d="M392.32,147.83v4.52c0,.45-.18.67-.63.67h-10.08v3.41c0,1.78,1.15,2.48,3.7,2.48s3.71-.7,3.71-2.48v-.41c0-.48.22-.7.7-.7h1.89c.48,0,.7.22.7.7v.63c0,3.41-2.33,5.08-7.08,5.08s-7.08-1.67-7.08-5.08v-8.82c0-3.41,2.37-5.07,7.15-5.07s7,1.67,7,5.07ZM381.61,148.05v2.33h7.41v-2.33c0-1.67-1.19-2.48-3.71-2.48s-3.7.82-3.7,2.48Z"/>
        <path class="cls-2" d="M429.75,147.83v4.52c0,.45-.18.67-.63.67h-10.08v3.41c0,1.78,1.15,2.48,3.7,2.48s3.71-.7,3.71-2.48v-.41c0-.48.22-.7.7-.7h1.89c.48,0,.7.22.7.7v.63c0,3.41-2.33,5.08-7.08,5.08s-7.08-1.67-7.08-5.08v-8.82c0-3.41,2.37-5.07,7.15-5.07s7,1.67,7,5.07ZM419.04,148.05v2.33h7.41v-2.33c0-1.67-1.19-2.48-3.71-2.48s-3.7.82-3.7,2.48Z"/>
        <path class="cls-2" d="M442.62,143.05c.48,0,.67.15.7.7l.07,1.19c1.63-1.37,3.78-2.19,6.15-2.19,3.26,0,5.22,1.82,5.22,4.74v13.19c0,.55-.19.74-.67.74h-2.15c-.48,0-.7-.26-.7-.74v-12.34c0-1.67-.85-2.45-2.74-2.45-1.67,0-3.45.67-5.04,1.89v12.89c0,.55-.18.74-.67.74h-2.15c-.48,0-.7-.19-.7-.74v-16.93c0-.48.22-.7.7-.7h1.96Z"/>
        <path class="cls-2" d="M479.23,147.83v4.52c0,.45-.18.67-.63.67h-10.08v3.41c0,1.78,1.15,2.48,3.7,2.48s3.71-.7,3.71-2.48v-.41c0-.48.22-.7.7-.7h1.89c.48,0,.7.22.7.7v.63c0,3.41-2.33,5.08-7.08,5.08s-7.08-1.67-7.08-5.08v-8.82c0-3.41,2.37-5.07,7.15-5.07s7,1.67,7,5.07ZM468.52,148.05v2.33h7.41v-2.33c0-1.67-1.19-2.48-3.71-2.48s-3.7.82-3.7,2.48Z"/>
        <path class="cls-2" d="M499.43,143.46v1.71c0,.48-.19.7-.74.74-2.08.11-4.26,1.07-5.74,2.37v12.41c0,.55-.18.74-.67.74h-2.15c-.48,0-.7-.19-.7-.74v-16.93c0-.48.22-.7.7-.7h1.96c.48,0,.67.15.7.7l.11,1.59c1.63-1.63,3.7-2.59,5.78-2.59.48,0,.74.22.74.7Z"/>
        <path class="cls-2" d="M507.63,156.69v-8.89c0-3.26,1.82-5.04,5.22-5.04,2.26,0,4.37.74,6.15,2.22l.07-1.19c.04-.55.22-.74.7-.74h1.96c.48,0,.7.19.7.74v20.12c0,3.3-2.48,5.08-7.33,5.08h-5.11c-.55,0-.74-.22-.74-.7v-1.56c0-.48.26-.7.74-.7h5.11c2.56,0,3.82-.82,3.82-2.48v-3.89c-1.96,1.44-3.89,2.08-6.08,2.08-3.41,0-5.22-1.78-5.22-5.04ZM511.15,148.35v7.78c0,1.59.93,2.41,2.74,2.41,1.63,0,3.26-.59,5.04-1.89v-8.78c-1.63-1.22-3.37-1.93-5.04-1.93-1.82,0-2.74.82-2.74,2.41Z"/>
        <path class="cls-2" d="M536.65,139.61c0,.48-.22.7-.67.7h-2.15c-.48,0-.7-.22-.7-.7v-3.33c0-.56.22-.74.7-.74h2.15c.48,0,.67.18.67.74v3.33ZM536.65,160.69c0,.55-.18.74-.67.74h-2.15c-.48,0-.7-.19-.7-.74v-16.9c0-.55.22-.74.7-.74h2.15c.48,0,.67.19.67.74v16.9Z"/>
        <path class="cls-2" d="M546.99,147.76c0-3.3,2.37-5,7-5s7,1.63,7,5v12.93c0,.55-.19.74-.67.74h-1.93c-.48,0-.67-.19-.7-.74l-.07-1.07c-1.78,1.37-3.74,2.11-5.85,2.11-3.15,0-5.22-1.82-5.22-4.48v-1.78c0-2.67,2-4.48,5.15-4.48h5.86v-2.85c0-1.78-1.11-2.52-3.59-2.52s-3.67.74-3.67,2.41v.3c0,.56-.22.74-.7.74h-1.93c-.48,0-.67-.19-.67-.74v-.55ZM557.55,156.91v-3.19h-5.11c-1.67,0-2.45.67-2.45,2.26v.74c0,1.45.78,2.08,2.67,2.08,1.63,0,3.3-.67,4.89-1.89Z"/>
      </g>
      <g>
        <path class="cls-2" d="M332.73,32.1h-102.58v88.9h111.13v-49.75h-44.19v19.19h21.96v8.33h-66.68v-44.45h61.31c2.97,0,5.37,2.4,5.37,5.37v.45h22.23v-19.5c0-4.72-3.83-8.55-8.55-8.55Z"/>
        <g>
          <path class="cls-1" d="M694.06,37.89c0-3.19-2.59-5.78-5.78-5.78h-102.68c-1.76,0-3.19,2.36-3.19,5.27v16.96h82.59l-28.03,32.33h23.51l28.35-32.33,5.24-6.04v-10.4Z"/>
          <path class="cls-1" d="M611.47,98.78l28.03-32.33h-23.51l-28.35,32.33-5.24,6.04.32,16.19h108.12c1.78,0,3.22-2.38,3.22-5.31v-16.91h-82.59Z"/>
        </g>
        <path class="cls-2" d="M111.13,60.9c0-2.26-.26-4.46-.75-6.57-2.48-10.63-10.84-18.99-21.47-21.47-2.11-.5-4.31-.76-6.57-.76H0v88.9h22.23v-22.23h60.1c1.01,0,2.01-.05,3-.16,1.22-.13,2.41-.33,3.58-.6,10.63-2.48,18.99-10.84,21.47-21.47.01-.05.03-.1.04-.15.47-2.07.72-4.21.72-6.42v-9.08ZM88.9,68c0,4.72-3.83,8.55-8.55,8.55H22.23v-22.23h58.13c4.72,0,8.55,3.83,8.55,8.55v5.13Z"/>
        <path class="cls-2" d="M199.01,65.38l-4.59-11.05-6.22-14.98c-1.82-4.39-6.11-7.25-10.86-7.25h-21.61c-4.75,0-9.04,2.86-10.86,7.25l-6.21,14.98-4.59,11.05-9.22,22.23-13.86,33.4h24.07l13.86-33.4,9.22-22.23,4.59-11.05h7.63l4.59,11.05,9.22,22.23,13.86,33.4h24.06l-13.86-33.4-9.22-22.23Z"/>
        <polygon class="cls-1" points="371.35 32.1 349.12 32.1 349.12 121 460.25 121 460.25 98.78 371.35 98.78 371.35 32.1"/>
        <path class="cls-1" d="M552.41,98.78h-58.08c-4.72,0-8.55-3.83-8.55-8.55v-58.13h-22.23v64.46c1.89,12.94,12.39,23.08,25.5,24.44h55.37l8.64-9.53v9.53h21.63V32.1h-22.23l-.04,66.68Z"/>
      </g>
    </g>
    <g>
      <path class="cls-1" d="M727.16,49.32h-22.54s0-10.59,0-10.59h22.54v10.59Z"/>
      <path class="cls-1" d="M689.83,0v22.54s-10.59,0-10.59,0V0h10.59Z"/>
      <path class="cls-1" d="M702.62,31.79l15.73-15.73-7.49-7.49-15.73,15.73c2.91,2.04,5.44,4.58,7.49,7.49Z"/>
    </g>
  </g>
</svg>