<?xml version="1.0" encoding="UTF-8"?>
<svg id="Camada_1" data-name="Camada 1" xmlns="http://www.w3.org/2000/svg" viewBox="0 0 1080 1080">
  <defs>
    <style>
      .cls-1 {
        fill: none;
      }

      .cls-2 {
        fill: #11cd00;
      }

      .cls-3 {
        fill: #01375a;
      }
    </style>
  </defs>
  <path class="cls-1" d="M645.88,626.43l-17.26,17.27,124.02,124.03c3.05,3.03,6.37,5.17,9.98,6.63,3.58,1.46,7.47,2.22,11.35,2.19,3.9.03,7.81-.73,11.39-2.19,3.6-1.46,6.92-3.61,9.97-6.63l111.51-111.51c3.05-3.05,5.18-6.37,6.64-9.95,1.46-3.61,2.22-7.49,2.22-11.42s-.75-7.75-2.22-11.34c-1.46-3.61-3.59-6.92-6.61-9.97l-256.54-256.49c-3.01-3.05-6.34-5.2-9.95-6.66-3.59-1.44-7.46-2.19-11.34-2.19s-7.81.76-11.39,2.19c-3.61,1.46-6.93,3.61-9.98,6.66l-32.21,32.22,70.43,70.46c11.42,11.41,20.13,24.78,25.89,39,5.78,14.22,8.65,29.27,8.65,44.34s-2.87,30.1-8.63,44.34c-5.76,14.22-14.47,27.61-25.9,39.02Z"/>
  <path class="cls-1" d="M327.35,265.23c-3.04-3.05-6.37-5.17-9.95-6.63-3.59-1.46-7.46-2.22-11.37-2.22s-7.78.76-11.39,2.22c-3.6,1.46-6.93,3.59-9.94,6.63l-103.79,103.78-7.75,7.76c-3.03,3.01-5.18,6.34-6.65,9.95-1.46,3.59-2.19,7.46-2.19,11.39s.73,7.75,2.19,11.36c1.46,3.59,3.62,6.9,6.65,9.95l256.51,256.51c3.01,3,6.34,5.18,9.94,6.64,3.6,1.44,7.47,2.19,11.37,2.19s7.79-.76,11.39-2.19c3.61-1.49,6.93-3.64,9.98-6.64l32.21-32.24-70.46-70.46c-11.42-11.41-20.13-24.76-25.88-39-5.78-14.22-8.63-29.27-8.63-44.31s2.85-30.12,8.63-44.34c5.76-14.24,14.46-27.63,25.91-39.05h-.03l17.27-17.27-124.03-124.03Z"/>
  <path class="cls-1" d="M513.42,451.29l-9.53,9.51-7.75,7.78c-3.03,3.03-5.15,6.34-6.62,9.95-1.46,3.59-2.21,7.46-2.21,11.39s.75,7.76,2.21,11.34c1.46,3.61,3.59,6.93,6.62,9.98l70.46,70.43,17.27-17.26c3.03-3.03,5.17-6.35,6.63-9.95,1.46-3.61,2.2-7.49,2.2-11.39s-.73-7.78-2.2-11.37c-1.46-3.61-3.6-6.93-6.63-9.96l-70.44-70.46Z"/>
  <path class="cls-2" d="M173.16,376.77l7.75-7.76,103.79-103.78c3.01-3.05,6.34-5.17,9.94-6.63,3.61-1.46,7.49-2.22,11.39-2.22s7.78.76,11.37,2.22c3.58,1.46,6.91,3.59,9.95,6.63l124.03,124.03,62.03-62.03-124.04-124.02c-11.4-11.42-24.78-20.12-39-25.9-14.21-5.76-29.3-8.63-44.34-8.63s-30.1,2.86-44.34,8.63c-14.22,5.76-27.62,14.47-39.02,25.9l-111.54,111.51c-11.44,11.42-20.15,24.83-25.91,39.05-5.75,14.22-8.63,29.29-8.63,44.34s2.88,30.1,8.63,44.34c5.79,14.22,14.47,27.58,25.91,39l256.51,256.51c11.41,11.41,24.78,20.12,39,25.88,14.21,5.78,29.29,8.63,44.34,8.63s30.1-2.85,44.34-8.63c14.22-5.74,27.61-14.47,39.02-25.88l32.24-32.24,62.03-62.03,17.26-17.27c11.43-11.41,20.15-24.81,25.9-39.02,5.76-14.24,8.63-29.32,8.63-44.34s-2.87-30.12-8.65-44.34c-5.76-14.22-14.47-27.59-25.89-39l-70.43-70.46-62.03,62.03,70.44,70.46c3.03,3.03,5.17,6.35,6.63,9.96,1.46,3.58,2.2,7.46,2.2,11.37s-.73,7.78-2.2,11.39c-1.46,3.6-3.6,6.92-6.63,9.95l-17.27,17.26-62.03,62.03-32.21,32.24c-3.04,3-6.37,5.15-9.98,6.64-3.6,1.44-7.49,2.19-11.39,2.19s-7.77-.76-11.37-2.19c-3.6-1.46-6.93-3.64-9.94-6.64L173.16,419.42c-3.03-3.05-5.18-6.36-6.65-9.95-1.46-3.61-2.19-7.49-2.19-11.36s.73-7.81,2.19-11.39c1.46-3.61,3.62-6.93,6.65-9.95Z"/>
  <path class="cls-3" d="M906.84,656.21l-111.51,111.51c-3.05,3.03-6.37,5.17-9.97,6.63-3.58,1.46-7.49,2.22-11.39,2.19-3.88.03-7.77-.73-11.35-2.19-3.6-1.46-6.93-3.61-9.98-6.63l-124.02-124.03-62.03,62.03,124.03,124.04c11.41,11.41,24.81,20.13,39,25.88,14.22,5.78,29.29,8.63,44.35,8.63s30.12-2.86,44.34-8.63c14.24-5.76,27.61-14.47,39.05-25.88l111.53-111.53c11.43-11.42,20.13-24.83,25.88-39.05,5.79-14.22,8.64-29.29,8.64-44.34s-2.85-30.09-8.64-44.31c-5.75-14.24-14.46-27.61-25.88-39.02l-256.51-256.51c-11.4-11.41-24.77-20.12-38.99-25.88-14.23-5.78-29.3-8.63-44.34-8.63s-30.12,2.85-44.34,8.61c-14.23,5.75-27.62,14.48-39.05,25.9l-32.24,32.24-62.03,62.03-17.27,17.27h.03c-11.45,11.41-20.15,24.81-25.91,39.05-5.78,14.22-8.63,29.3-8.63,44.34s2.85,30.1,8.63,44.31c5.76,14.25,14.46,27.59,25.88,39l70.46,70.46,62.03-62.03-70.46-70.43c-3.03-3.05-5.15-6.37-6.62-9.98-1.46-3.58-2.21-7.47-2.21-11.34s.75-7.81,2.21-11.39c1.46-3.61,3.59-6.93,6.62-9.95l7.75-7.78,9.53-9.51,62.03-62.03,32.21-32.22c3.06-3.05,6.37-5.2,9.98-6.66,3.58-1.44,7.49-2.19,11.39-2.19s7.75.76,11.34,2.19c3.61,1.46,6.93,3.61,9.95,6.66l256.54,256.49c3.02,3.05,5.15,6.36,6.61,9.97,1.46,3.59,2.22,7.47,2.22,11.34s-.75,7.81-2.22,11.42c-1.46,3.58-3.59,6.9-6.64,9.95Z"/>
</svg>