<?xml version="1.0" encoding="UTF-8"?>
<svg id="Camada_1" data-name="Camada 1" xmlns="http://www.w3.org/2000/svg" viewBox="0 0 1080 1080">
  <defs>
    <style>
      .cls-1 {
        fill: #11cd00;
      }
    </style>
  </defs>
  <path class="cls-1" d="M921.82,471.35c-19.2,137.36-101.85,264.54-219.6,337.85-117.75,73.31-268.35,91.38-400.09,47.99,56.87-189.16,169.89-361.05,321.02-488.25-107.41,54.17-192.03,146.19-255.66,248.28-63.63,102.09-108.07,214.73-152.16,326.65-41.85-6.53-61.53-33.88-61.53-33.88,1.94-17.34,34.71-86.18,67.94-151.35-73.08-103.48-21.29-259.81,73.04-346.05,72.71-66.48,195.32-103.31,285.62-142.71,90.3-39.39,182.23-93.86,222.82-183.63,93.15,102.78,137.79,247.75,118.6,385.12Z"/>
</svg>