<?xml version="1.0" encoding="UTF-8"?>
<svg id="Camada_1" data-name="Camada 1" xmlns="http://www.w3.org/2000/svg" viewBox="0 0 1080 1080">
  <defs>
    <style>
      .cls-1 {
        fill: #11cd00;
      }

      .cls-2 {
        fill: #01375a;
      }
    </style>
  </defs>
  <path class="cls-2" d="M948.33,549.66h-38.94c0-51.42-10.08-101.32-29.96-148.31-19.19-45.37-46.66-86.11-81.63-121.09-34.98-34.98-75.72-62.44-121.09-81.63-46.99-19.88-96.89-29.96-148.31-29.96-34.71,0-69.12,4.67-102.28,13.89-32.16,8.94-63.05,22.13-91.82,39.2-50.52,29.96-93.55,71.33-125.5,120.45-6.49,9.98-3.29,23.36,7.05,29.27l28.76,16.43c9.49,5.42,21.53,2.5,27.55-6.63,25.63-38.9,59.92-71.69,100.1-95.52,23.13-13.72,47.96-24.32,73.8-31.51,26.67-7.42,54.37-11.18,82.35-11.18,41.41,0,81.55,8.1,119.33,24.08,36.5,15.44,69.29,37.55,97.46,65.72,28.17,28.17,50.28,60.96,65.72,97.46,15.98,37.77,24.08,77.92,24.08,119.33h-38.94c-5.04,0-7.56,6.09-4,9.66l76.14,76.12c2.21,2.21,5.79,2.21,8,0l76.14-76.12c3.56-3.56,1.04-9.66-4-9.66Z"/>
  <path class="cls-2" d="M684.55,813.56c-23.13,13.72-47.96,24.32-73.8,31.51-26.67,7.42-54.37,11.18-82.35,11.18-41.41,0-81.55-8.1-119.33-24.08-36.5-15.44-69.29-37.55-97.46-65.72-28.17-28.17-50.28-60.96-65.72-97.46-15.98-37.77-24.08-77.92-24.08-119.33h38.94c5.04,0,7.56-6.09,4-9.66l-76.14-76.12c-2.21-2.21-5.79-2.21-8,0l-76.14,76.12c-3.56,3.56-1.04,9.66,4,9.66h38.94c0,51.42,10.08,101.32,29.96,148.31,19.19,45.37,46.66,86.11,81.63,121.09,34.98,34.98,75.72,62.44,121.09,81.63,46.99,19.88,96.89,29.96,148.31,29.96,34.71,0,69.12-4.67,102.28-13.9,32.16-8.94,63.05-22.13,91.82-39.2,50.52-29.96,93.55-71.33,125.5-120.45,6.49-9.98,3.29-23.36-7.05-29.27l-28.76-16.43c-9.49-5.42-21.53-2.5-27.55,6.63-25.63,38.9-59.92,71.69-100.1,95.52Z"/>
  <path class="cls-1" d="M473.02,732.66l28.06-137.31-95.12.75c-13.58.11-21.45-15.35-13.36-26.27l160.24-216.29c10.55-14.24,33.07-4.05,29.32,13.28l-28.84,133.47,97.78.76c13.46.1,21.12,15.45,13.1,26.27l-161.83,218.43c-10.49,14.16-32.89,4.17-29.36-13.1Z"/>
</svg>