<?xml version="1.0" encoding="UTF-8"?>
<svg id="Camada_1" data-name="Camada 1" xmlns="http://www.w3.org/2000/svg" viewBox="0 0 1080 1080">
  <defs>
    <style>
      .cls-1 {
        fill: #11cd00;
      }

      .cls-2 {
        fill: #01375a;
      }
    </style>
  </defs>
  <path class="cls-2" d="M729.42,711.63c-61.38,63.81-156.03,99.29-242.96,76.08-42.82-11.43-88.79-41.41-122.22-71.06-15.97,21.81-25.81,45.77-33.5,75.02-1.72,6.51-9.14,9.65-14.96,6.27-9.45-5.47-18.69-11.29-27.71-17.44-4.42-3.02-5.76-8.96-3.03-13.58,15.92-26.9,35.26-51.38,55.08-75.67-75.8-91.56-73.8-213.56,14.53-299.69,131.23-127.95,343.29-85.2,453.46-144.31,10.69-5.74,23.77,1.48,24.73,13.57,5.6,70.29,8.71,140.77.17,210.32-10.86,88.56-42.22,176.68-103.6,240.49Z"/>
  <path class="cls-1" d="M652.9,564.47l-190.18,90.74c-10.44,4.97-20.6-7.3-13.75-16.62l64.19-87.4-60.83-44.68c-6.78-4.98-5.79-15.38,1.79-19.01l190.18-90.73c10.44-4.97,20.6,7.3,13.75,16.62l-64.19,87.4,60.83,44.68c6.78,4.98,5.8,15.38-1.79,19Z"/>
</svg>