<?xml version="1.0" encoding="UTF-8"?>
<svg id="Camada_1" data-name="Camada 1" xmlns="http://www.w3.org/2000/svg" viewBox="0 0 1080 1080">
  <defs>
    <style>
      .cls-1 {
        fill: #fff;
      }
    </style>
  </defs>
  <path class="cls-1" d="M788.53,267.68h-497.07c-64.61,0-117.18,52.57-117.18,117.19v290.46c0,95.49,77.69,173.19,173.18,173.19h385.07c95.49,0,173.18-77.7,173.18-173.19v-290.46c0-64.62-52.57-117.19-117.18-117.19ZM769.04,345.24l-190.93,218.82c-9.75,11.18-23.28,17.34-38.11,17.34s-28.37-6.16-38.11-17.33l-190.93-218.83h458.09ZM732.53,770.95h-385.07c-52.73,0-95.64-42.9-95.64-95.63v-279.89l191.61,219.62c24.35,27.89,59.54,43.89,96.56,43.89s72.21-16,96.56-43.89l191.62-219.61v279.89c0,52.74-42.91,95.63-95.64,95.63Z"/>
</svg>