<?xml version="1.0" encoding="UTF-8"?>
<svg id="Camada_1" data-name="Camada 1" xmlns="http://www.w3.org/2000/svg" viewBox="0 0 1080 1080">
  <defs>
    <style>
      .cls-1 {
        fill: #fff;
      }
    </style>
  </defs>
  <path class="cls-1" d="M872.49,787.62l-17.57,27.11c-13.48,20.79-36.47,33.42-61.24,33.74-76.7,1-247.23-15.86-396.29-164.91-149.06-149.06-165.91-319.61-164.91-396.3.33-24.77,12.94-47.75,33.74-61.23l27.11-17.58c19.52-12.66,45.22-9.94,61.68,6.52l105.79,105.78c19.25,19.25,19.25,50.47,0,69.73l-40.65,40.65s8.94,67.91,85.34,144.31c76.4,76.4,144.33,85.34,144.33,85.34l40.65-40.63c19.24-19.25,50.47-19.25,69.71,0l105.79,105.78c16.46,16.46,19.17,42.17,6.5,61.7Z"/>
</svg>