<?xml version="1.0" encoding="UTF-8"?>
<svg id="Camada_1" data-name="Camada 1" xmlns="http://www.w3.org/2000/svg" viewBox="0 0 1080 1080">
  <defs>
    <style>
      .cls-1 {
        fill: #11cd00;
      }
    </style>
  </defs>
  <path class="cls-1" d="M599.05,180.5c-17.08-17.08-39.8-26.49-63.96-26.49s-46.87,9.41-63.96,26.49c-17.08,17.08-26.49,39.8-26.49,63.96s9.41,46.87,26.49,63.96c17.08,17.08,39.8,26.49,63.96,26.49s46.87-9.41,63.96-26.49c17.08-17.08,26.49-39.8,26.49-63.96s-9.41-46.87-26.49-63.96Z"/>
  <path class="cls-1" d="M969.16,592.69c-2.21-6.83-8.54-10.44-15.74-8.99-1.18.24-2.37.44-3.51.62-.09.01-.18.02-.26.03-.13.02-.25.03-.37.05-.76.08-1.53.15-2.28.2-2.79.2-5.62.24-8.42.11-1.29-.06-2.6-.16-3.91-.29-.55-.12-1.22-.2-2.01-.3-.12-.01-.22-.03-.27-.03-2.59-.46-5.21-1.07-7.78-1.82-2.3-.67-4.56-1.51-7.03-2.46-.02,0-.04-.02-.06-.03-.63-.28-1.26-.58-1.88-.88-1.16-.56-2.32-1.15-3.44-1.77-.73-.4-1.46-.81-2.19-1.24,9.15-5.07,17.59-11.75,22.4-21.45,5.84-11.79,5.71-25.37-.34-37.25-5.91-11.61-17.33-19.47-30.56-21.04-7.67-.91-15.94.69-23.29,4.49-7.48,3.87-13.49,9.78-16.93,16.66-8.06,16.09-4.8,33.29,2.94,47.66l-.25.03c-.89.09-1.78.17-2.65.23-2.97.2-5.98.21-8.94.04-1.33-.08-2.64-.21-4.02-.35-.06,0-.12-.02-.19-.03-.93-.15-1.87-.31-2.79-.49-3.12-.61-6.32-1.45-9.51-2.49-1.5-.49-3.04-1.04-4.57-1.63-.19-.07-.85-.41-1.14-.55-.16-.08-.31-.15-.41-.2-.31-.15-.6-.24-.88-.28-.05-.02-.1-.04-.15-.06-.33-.14-.65-.27-.94-.4-3.33-1.53-6.75-3.32-10.44-5.46-3.02-1.75-6.78-2.17-10.3-1.16-3.31.95-5.97,3.05-7.47,5.9-3.39,6.41-1.32,14.16,4.71,17.65,16.66,9.63,33.18,14.86,49.09,15.53,9.12.38,18.6-.85,28.68-3.77,16.41,14.73,38.22,23.26,59.57,23.26,2.11,0,4.23-.08,6.32-.25,3.99-.32,8.04-.89,12.02-1.7,3.15-.64,6.01-2.79,7.83-5.9,1.88-3.21,2.38-7.01,1.36-10.18ZM889.63,557.16c-9.95-14.94-11.49-31.01,6.32-35.26,9.74-1.7,17.72,9.91,13.94,19.7-3.78,7.92-11.89,11.64-20.25,15.56Z"/>
  <path class="cls-1" d="M817.27,550.01c-5.44-19.33-13.48-38.12-23.92-55.83-22.99-40.94-53.97-73.4-92.08-96.48-46.24-28.01-103.16-42.21-169.17-42.22-52.61-.59-87.44,10.35-108.25,16.89-3.24,1.02-6.22,1.95-8.82,2.7-.14-.11-.28-.21-.42-.32-21.18-15.81-47.53-35.48-72.8-43.58-26.4-8.46-53.29-12.25-79.91-11.25-8.02.3-14.98,5.66-17.31,13.34-2.33,7.67.51,16.03,7.07,20.8,24.34,17.7,43.03,40.67,54.27,66.64-4.01,8.94-7.39,17.6-10.68,26.01-6.11,15.63-11.88,30.4-21.1,45.78-11.8,19.69-33.55,31.92-56.78,31.92h-8.89c-21.15,0-38.36,17.21-38.36,38.36v91.2c0,16.89,10.83,31.6,26.96,36.62,14.5,4.51,27.73,11.78,39.31,21.6,21.73,18.43,60.62,51.77,76.97,68.07,30.2,30.11,42.93,73.07,34.04,114.91-1.61,7.57.26,15.35,5.13,21.36,4.87,6.01,12.09,9.46,19.83,9.46h78.33c11.85,0,22.05-8.05,24.81-19.57l9.93-41.4c28.66,3.13,67.06,3.13,95.71,0l9.93,41.4c2.76,11.52,12.97,19.57,24.81,19.57h78.33c7.73,0,14.96-3.45,19.83-9.46,4.87-6.01,6.74-13.8,5.13-21.36l-.14-.65c-8.8-41.41,4.03-84.19,34.32-114.43,14.35-14.32,26.86-30.03,37.19-46.7,10.77-17.37,19.22-35.86,25.11-54.96,6.71-21.74,10.11-44.28,10.11-66.99,0-20.77-2.85-41.43-8.47-61.43ZM325.72,572.93c-13.98,0-25.36-11.38-25.36-25.36s11.38-25.36,25.36-25.36,25.36,11.38,25.36,25.36-11.38,25.36-25.36,25.36ZM628.6,424.47c-2.53,6.68-9.02,11.16-16.16,11.16-2.09,0-4.15-.38-6.11-1.12-18.94-7.17-44.32-11.12-71.45-11.12-26.97,0-52.2,3.91-71.04,11.01-1.96.74-4.01,1.11-6.09,1.11-7.15,0-13.65-4.5-16.17-11.19-3.36-8.91,1.16-18.9,10.08-22.26,22.52-8.49,52.08-13.16,83.22-13.16h.24c31.24.02,60.87,4.74,83.45,13.29,4.32,1.63,7.74,4.85,9.63,9.06,1.9,4.21,2.04,8.9.41,13.22Z"/>
</svg>