<?xml version="1.0" encoding="UTF-8"?>
<svg id="Objects" xmlns="http://www.w3.org/2000/svg" viewBox="0 0 2200 2200">
  <defs>
    <style>
      .cls-1 {
        fill: #12ce16;
      }

      .cls-2 {
        fill: #0c3a59;
      }
    </style>
  </defs>
  <path class="cls-1" d="M1806.43,1451.79c0-67.68-54.81-122.49-122.49-122.49s-122.73,54.81-122.73,122.49,55.05,122.73,122.73,122.73,122.49-55.05,122.49-122.73Z"/>
  <path class="cls-1" d="M1630.56,1598.59c32.89,12.15,70.06,12.39,102.95,1.19,5.72-1.67,10.96-3.81,15.97-6.2,32.17-14.78,58.39-40.27,74.11-71.73,2.86-5.72,5.24-11.2,7.15-16.92,6.2-17.16,9.29-35.03,9.29-53.14,0-17.16-2.62-33.84-8.1-50.04-1.91-5.72-4.05-10.96-6.43-16.44-15.02-31.7-40.75-57.91-72.21-73.64-6.2-3.1-12.39-5.48-19.54-7.86-15.96-5.48-32.65-8.1-49.81-8.1-18.35,0-36.46,3.1-53.38,9.29-5.96,2.14-11.2,4.53-16.68,7.15-31.46,15.73-56.95,41.94-71.73,74.11-2.38,4.77-4.29,9.77-5.96,15.01-5.72,16.44-8.58,33.36-8.58,50.52,0,18.11,3.1,35.98,9.29,52.9,1.67,4.53,3.34,8.82,5.24,12.87,14.78,31.93,40.51,58.39,72.21,74.11,5.24,2.62,10.49,5,16.21,6.91ZM1544.53,1451.79c0-76.74,62.68-139.17,139.41-139.17s139.17,62.44,139.17,139.17-62.43,139.41-139.17,139.41-139.41-62.68-139.41-139.41Z"/>
  <path class="cls-1" d="M518.61,1232.07c-48.38,0-87.7,39.32-87.7,87.7s39.32,87.7,87.7,87.7,87.7-39.32,87.7-87.7-39.32-87.7-87.7-87.7Z"/>
  <path class="cls-1" d="M598.2,1457.99c-19.07,17.63-46.95,27.17-79.6,27.17-35.27,0-65.54-10.25-84.84-28.36-36.22,10.72-60.29,44.09-60.29,85.08v104.62h290.5v-93.89c0-45.28-25.74-81.74-65.77-94.61Z"/>
  <path class="cls-2" d="M849.62,1460.85c0-182.55-148.47-331.01-331.01-331.01s-331.01,148.47-331.01,331.01,148.47,331.01,331.01,331.01,331.01-148.47,331.01-331.01ZM687.81,1658.4c0,6.43-5.48,11.92-11.92,11.92h-314.33c-6.67,0-11.92-5.48-11.92-11.92v-116.53c0-53.86,33.84-97.95,83.89-109.62,1.19-.48,2.38-.71,3.81-.71h.24c1.43,0,2.62.24,3.81.71,1.19.24,2.15.95,3.1,1.67.72.48,1.43.95,1.91,1.67.48.48.72.95,1.19,1.43,14.06,15.25,40.27,24.31,71.02,24.31,28.36,0,51.95-8.34,66.25-23.36.24-.48.48-.48.72-.71.48-.72.95-1.19,1.43-1.43.24-.24.47-.48.71-.72,0-.24.24-.24.24-.24.95-.48,1.91-1.19,3.1-1.43,1.19-.48,2.62-.71,3.81-.71h.24c1.43,0,2.62.24,4.05.71,53.15,13.82,88.65,61.48,88.65,119.15v105.81ZM518.61,1431.3c-61.48,0-111.53-50.05-111.53-111.53s50.04-111.53,111.53-111.53,111.53,50.04,111.53,111.53-50.04,111.53-111.53,111.53Z"/>
  <rect class="cls-1" x="919.68" y="425.15" width="304.8" height="25.02"/>
  <path class="cls-1" d="M943.28,534.78c-.24.24-34.32,44.33-34.55,44.56-3.1,4.05-9.3,4.05-12.39,0l-16.21-21.69c0-.24-.24-.24-.24-.48v28.12h63.39v-50.52Z"/>
  <rect class="cls-1" x="879.88" y="770.46" width="63.39" height="63.39"/>
  <path class="cls-1" d="M888.7,677.05l13.35,12.15,32.41-34.56c2.15-2.38,5.96-2.62,8.34-.24.24.24.48.48.48.72v-5h-63.39v28.12c1.67-2.62,5.96-4.05,8.82-1.19Z"/>
  <path class="cls-1" d="M888.7,549.79l13.11,12.15,32.65-34.79c2.15-2.38,5.96-2.38,8.34-.24.24.24.48.48.48.71v-5.48h-63.39v28.84c1.67-2.62,5.96-4.05,8.82-1.19Z"/>
  <path class="cls-1" d="M943.28,662.03c-.24.48-34.32,44.33-34.55,44.8-3.1,4.05-9.3,3.81-12.39-.24l-16.21-21.69c0-.24-.24-.24-.24-.48v29.07h63.39v-51.48Z"/>
  <rect class="cls-1" x="1016.67" y="545.26" width="264.76" height="12.15"/>
  <rect class="cls-1" x="1016.67" y="918.45" width="264.76" height="12.15"/>
  <rect class="cls-1" x="1016.67" y="790" width="264.76" height="12.39"/>
  <rect class="cls-1" x="1016.67" y="673.47" width="264.76" height="12.39"/>
  <rect class="cls-1" x="879.88" y="891.76" width="63.39" height="63.39"/>
  <path class="cls-2" d="M830.56,1065.97l1.19.24,179.21-.95h303.84c3.34,0,6.43-.72,9.53-1.67h.24l2.38-.48c1.19,0,2.38-.48,3.58-1.19,1.91-.72,3.57-1.67,5.24-2.62,1.43-.95,2.86-1.91,4.29-2.86,12.87-8.58,17.16-21.45,17.63-29.55l1.19-656.3c-3.57-26.45-23.83-36.22-35.99-37.65l-113.44.95v19.78c-.24,13.58-11.68,24.79-25.26,24.79h-220.2c-13.82,0-25.02-11.2-25.26-24.79v-23.83l-106.05,1.91-2.38.48c-21.69,4.76-32.41,29.07-33.36,31.69l-.95,2.15-2.86,658.21v1.43l.48,1.43c7.39,32.41,35.75,38.61,36.94,38.84ZM871.54,633.43h80.07c4.53,0,8.34,3.81,8.34,8.34v80.07c0,4.53-3.81,8.34-8.34,8.34h-80.07c-4.53,0-8.34-3.81-8.34-8.34v-80.07c0-4.53,3.82-8.34,8.34-8.34ZM863.2,593.64v-79.83c0-4.77,3.82-8.34,8.34-8.34h80.07c4.53,0,8.34,3.58,8.34,8.34v79.83c0,4.77-3.81,8.34-8.34,8.34h-80.07c-4.53,0-8.34-3.58-8.34-8.34ZM871.54,753.78h80.07c4.53,0,8.34,3.81,8.34,8.34v80.07c0,4.53-3.81,8.34-8.34,8.34h-80.07c-4.53,0-8.34-3.81-8.34-8.34v-80.07c0-4.53,3.82-8.34,8.34-8.34ZM871.54,875.08h80.07c4.53,0,8.34,3.81,8.34,8.34v80.07c0,4.53-3.81,8.34-8.34,8.34h-80.07c-4.53,0-8.34-3.81-8.34-8.34v-80.07c0-4.53,3.82-8.34,8.34-8.34ZM1008.33,656.79h281.45c4.53,0,8.34,3.81,8.34,8.34v29.07c0,4.53-3.81,8.34-8.34,8.34h-281.45c-4.53,0-8.34-3.81-8.34-8.34v-29.07c0-4.53,3.82-8.34,8.34-8.34ZM999.99,565.76v-28.84c0-4.77,3.82-8.34,8.34-8.34h281.45c4.53,0,8.34,3.57,8.34,8.34v28.84c0,4.77-3.81,8.34-8.34,8.34h-281.45c-4.53,0-8.34-3.57-8.34-8.34ZM1008.33,773.32h281.45c4.53,0,8.34,3.81,8.34,8.34v29.07c0,4.53-3.81,8.34-8.34,8.34h-281.45c-4.53,0-8.34-3.81-8.34-8.34v-29.07c0-4.53,3.82-8.34,8.34-8.34ZM1008.33,901.77h281.45c4.53,0,8.34,3.58,8.34,8.34v28.83c0,4.77-3.81,8.34-8.34,8.34h-281.45c-4.53,0-8.34-3.58-8.34-8.34v-28.83c0-4.77,3.82-8.34,8.34-8.34ZM1232.82,408.47c4.77,0,8.34,3.58,8.34,8.34v41.47c0,4.77-3.58,8.34-8.34,8.34h-321.48c-4.53,0-8.34-3.57-8.34-8.34v-41.47c0-4.77,3.81-8.34,8.34-8.34h321.48Z"/>
  <path class="cls-1" d="M964.01,361.76h220.2c4.76,0,8.58-3.81,8.58-8.58v-38.61c0-4.77-3.81-8.58-8.58-8.58h-69.11c.72-2.62.95-5.48.95-8.34v-.24c0-2.86-.24-5.48-.95-8.1-3.81-19.54-20.97-34.32-41.7-34.32s-37.65,14.78-41.47,34.32c-.72,2.62-.95,5.48-.95,8.34,0,.48,0,1.19.24,1.67,0,2.38.24,4.53.72,6.67h-67.92c-4.77,0-8.58,3.81-8.58,8.58v38.61c0,4.77,3.81,8.58,8.58,8.58ZM1073.39,271.68c14.3,0,25.98,11.68,25.98,25.98s-11.68,25.97-25.98,25.97-25.74-11.68-25.74-25.97,11.44-25.98,25.74-25.98Z"/>
  <path class="cls-2" d="M1987.99,1384.59l-64.44.04c-5.04-18.43-12.24-36.25-21.49-53.23l46.19-45.32c5.35-5.24,8.35-12.24,8.45-19.74.09-7.49-2.75-14.59-7.98-19.94l-55-56.3c-10.81-11.03-28.61-11.24-39.68-.47l-46.41,45.23c-18.37-10.63-37.88-18.73-58.24-24.22v-57.38c0-19.76-16-35.82-35.67-35.82h-63.51c-19.67,0-35.67,16.06-35.67,35.82v58.3c-19.13,5.52-37.36,13.34-54.46,23.35l-44.99-45.09c-11.78-11.78-32.29-11.78-44.04,0l-51.32,51.29c-5.88,5.89-9.11,13.71-9.11,22.02s3.25,16.15,9.12,22.02l46.01,45.98c-9.34,16.98-16.6,34.9-21.67,53.51l-68.23-.04c-15.67,0-28.43,12.75-28.43,28.42v77.96c0,15.69,12.75,28.44,28.44,28.44l69.47-.06c4.94,17.19,11.74,33.78,20.36,49.62l-50.09,48.93c-11.07,10.82-11.26,28.63-.45,39.7l54.99,56.3c5.48,5.61,12.76,8.42,20.06,8.42s14.17-2.65,19.63-7.98l49.69-48.61c17.19,10.02,35.61,17.92,55.01,23.57v61.41c0,19.76,16,35.84,35.67,35.84h63.51c19.67,0,35.67-16.08,35.67-35.84v-60.45c18.81-5.09,36.82-12.34,53.8-21.67l45.58,45.59c6.07,6.07,14.04,9.1,22.02,9.1s15.94-3.03,22.02-9.1l51.3-51.32c5.88-5.86,9.12-13.68,9.12-22.02s-3.23-16.13-9.12-22.02l-44.71-44.73c9.96-17.18,17.75-35.52,23.25-54.75l65.35.06c15.67,0,28.43-12.75,28.43-28.44v-77.96c0-15.66-12.75-28.42-28.44-28.42ZM1520.7,1527.81c-2.39-4.77-4.29-9.77-6.2-15.01-7.15-19.54-10.72-40.04-10.72-61.01s3.33-39.32,9.77-57.67c1.67-5.96,4.29-11.92,6.91-17.87,17.16-36.94,46.47-67.2,82.69-85.32,6.2-3.34,12.63-5.96,19.3-8.34,37.65-13.82,80.78-14.3,118.92-1.43,8.1,2.62,15.49,5.72,22.4,9.29,36.46,17.87,66.01,48.14,83.17,84.84,2.86,6.2,5.48,12.39,7.63,18.83,6.2,18.59,9.29,37.89,9.29,57.67,0,20.97-3.57,41.47-10.48,61.01-2.38,6.67-5.24,13.11-8.58,19.78-17.87,36.22-48.37,65.54-85.31,82.69-5.96,2.86-11.92,5.24-18.35,7.15-18.11,6.2-37.42,9.53-57.19,9.53-21.21,0-41.94-3.81-61.48-10.96-6.67-2.14-12.87-5-19.07-8.1-36.22-18.11-65.77-48.38-82.69-85.08Z"/>
  <path class="cls-1" d="M1409.93,757.44c87.85,55.05,159.11,130.05,209.73,218.85l-35.33,14.6c-4.05,1.67-6.67,5.24-7.39,9.29-.48,4.29,1.19,8.58,4.53,11.2l86.5,66.73c1.91,1.67,4.53,2.38,7.15,2.38,1.67,0,3.1-.24,4.53-.95,4.05-1.43,6.67-5.01,7.39-9.29l14.54-108.19c.48-4.29-1.19-8.34-4.53-10.96-3.33-2.62-7.86-3.1-11.68-1.67l-42.89,17.63-.54.22c-52.64-93.44-127.22-172.3-219.35-230.04-5.55-3.47-12.92-1.79-16.43,3.77-3.49,5.59-1.8,12.94,3.77,16.43Z"/>
  <path class="cls-1" d="M477.09,1094.85c1.26.42,2.53.61,3.77.61,4.99,0,9.63-3.17,11.3-8.15,36.83-110.47,104.72-207.81,194.02-281.65l22.12,32.01c2.15,3.34,5.96,5.24,9.77,5.24h.95c4.29-.48,8.1-2.86,9.77-6.67l47.18-98.66c1.67-3.81,1.43-8.34-.95-11.92-2.38-3.34-6.43-5.48-10.72-5l-108.91,8.58c-4.29.24-7.86,2.86-9.77,6.67-1.91,3.81-1.43,8.34.95,11.92l25.73,37.65.34.49c-93.53,76.83-164.63,178.42-203.09,293.8-2.08,6.24,1.29,12.99,7.53,15.08Z"/>
  <path class="cls-1" d="M1478.52,1758.73l-107.48,17.87c-4.29.71-7.86,3.58-9.29,7.39-1.43,4.05-.71,8.58,1.91,11.92l22.85,27.56c-92.7,52.76-196.72,80.7-305.55,80.7-136.25,0-265.52-43.31-373.84-125.21-5.27-3.98-12.73-2.96-16.7,2.3s-2.93,12.73,2.32,16.69c112.5,85.08,246.75,130.05,388.22,130.05,114.41,0,223.68-29.78,320.84-85.91l.24.29,30.98,37.65c2.38,2.86,5.72,4.53,9.29,4.53.48,0,1.19-.24,1.91-.24,4.05-.72,7.62-3.58,9.05-7.63l38.37-102.24c1.43-3.81.72-8.34-1.91-11.68-2.62-3.34-6.91-4.77-11.2-4.05Z"/>
</svg>