<?xml version="1.0" encoding="UTF-8"?>
<svg id="Objects" xmlns="http://www.w3.org/2000/svg" viewBox="0 0 2200 2200">
  <defs>
    <style>
      .cls-1 {
        fill: #12ce16;
      }

      .cls-2 {
        fill: #0c3a59;
      }
    </style>
  </defs>
  <g>
    <path class="cls-2" d="M521.06,1874.02c133.19,3.68,267.19,1.2,400.46.86l515.53.7,235.49.15c26.93.03,73.97,4.11,98.9-1.16,7.08-1.5,11.35-4.92,15.43-10.85.73-6.04,2.05-10.25-1.65-15.69-6.89-10.13-25.63-11.96-36.7-12.33-44.61-1.5-89.54-1.06-134.17-.95l-.13-546.88c-.04-49.9,4.22-309.01-5.29-333.52-21.89-13.65-131.97-9.16-162.52-7.17-5.41,3.96-10.66,7.04-12.04,14.06-4.19,21.35-1.05,48.49-.96,70.5l.69,160.84c-.44,214.36.34,428.73,2.36,643.09-34.93.8-69.86,1.05-104.79.75l-.6-413.97c-.25-54.05,2.95-109.46-.22-163.29-.42-7.08-.23-14.03-4.95-19.73-6.54-3.8-12.05-5.58-19.61-6.46-20.09-2.34-120.62-3.33-136.02,1.53-3.45,1.09-7.74,2.73-9.49,6.06-8.8,16.78-3.31,527.55-3.68,595.5l-105.77.12c-2.18-182.07-2.79-364.15-1.84-546.23-.16-42.55,5.62-165.83-3.76-199.13-10.98-10-121.94-7.16-143.59-6.36-8.16.3-20.86,1.27-26.81,7.55-5.08,5.37-5.03,22.26-5.32,29.75-2.79,72,.46,145.42.75,217.55l-.53,344.04.15,151.62c-34.06,1.14-68.04,1.01-102.12.72-.23-57.06,5.04-425.14-6.3-440.17-5.29-7.02-24.16-6.93-32.2-6.9-25.24.09-116.69-2.83-135.24,4.94-5.5,6.5-6.28,17.82-7,26.33-3.65,43.39-1.38,88.87-1.51,132.5l-.2,284.51c-24.21-.13-85.98-8.3-102.32,7.74-2.94,2.88-4.96,6.36-5.36,10.62-.38,4,.19,8.41,3.53,10.82,10.36,7.49,26.99,7.62,39.4,7.96ZM1475.48,986.44c32.76-.59,65.52-.45,98.27.45,2.66,282.72,2.86,565.44.6,848.16l-98.98.08c-1.88-282.9-1.85-565.79.11-848.69ZM1290.99,1274.36c3.06,91.84-.28,184.97-.2,276.93.08,94.85,3.42,190.47.55,285.23l-93.88.3-.44-563.59c31.3-.18,62.71-.96,93.96,1.13ZM910.34,1124.42c33.68-.24,67.39.21,101.07.33l.07,710.04-100.84-.12c-1.07-153.44-1.28-306.89-.61-460.33l-.98-159.94c-.18-29.55-2.08-60.64,1.3-89.99ZM626.69,1430.36c33.7-1.05,67.59-.31,101.31-.29,2.47,135.1-.05,270.77-.48,405.93-33.83.23-67.67-.02-101.5-.74-1.18-134.97-.96-269.94.66-404.9Z"/>
    <rect class="cls-2" x="606.86" y="1409.53" width="149.45" height="443.12"/>
    <rect class="cls-2" x="900.53" y="1110.62" width="126.51" height="737.44"/>
    <rect class="cls-2" x="1179.11" y="1254.83" width="131.76" height="597.81"/>
    <rect class="cls-2" x="1457.7" y="963.79" width="134.38" height="891.48"/>
    <rect class="cls-2" x="459.38" y="1802.17" width="1343.12" height="76.04"/>
    <rect class="cls-2" x="570.81" y="1379.38" width="200.58" height="433.28"/>
    <rect class="cls-2" x="861.2" y="1067.36" width="197.3" height="755.13"/>
    <rect class="cls-2" x="1154.2" y="1216.81" width="190.75" height="619.45"/>
    <rect class="cls-2" x="1427.55" y="938.23" width="215.66" height="874.43"/>
  </g>
  <path class="cls-1" d="M1042.95,725.98c-11.27-18.74-13.52-45.02-33.25-56.92-8.34-1.24-16.04-1.46-23.11,4.24-7.29,5.88-9.19,15.73-9.22,24.59-.1,32.3,18,61.29,40.7,82.87,24.07,22.88,53.78,35.66,86.75,38.01.42,14.92-1.41,38.86,9.99,50.26,7.75,7.74,15.57,7.94,25.75,7.66,19.85-14.97,17.94-35.57,22.33-57.88,44.35-12.39,83.47-28.05,106.8-71.17.95-1.75,1.86-3.51,2.73-5.3.86-1.79,1.69-3.6,2.46-5.43.77-1.83,1.5-3.68,2.19-5.54.69-1.87,1.33-3.75,1.92-5.65.59-1.9,1.14-3.81,1.64-5.73.5-1.93.95-3.86,1.36-5.81.4-1.95.76-3.9,1.07-5.87.31-1.96.57-3.93.78-5.91.21-1.98.37-3.96.48-5.94.11-1.99.18-3.97.19-5.96.01-1.99-.02-3.98-.1-5.96-.08-1.99-.22-3.97-.4-5.95-.18-1.98-.41-3.96-.69-5.92-.28-1.97-.6-3.93-.98-5.88-.37-1.95-.8-3.9-1.27-5.83-.47-1.93-.99-3.85-1.55-5.76-10.73-35.06-38.18-61.78-70.31-78.02-7.79-3.86-15.78-7.23-23.98-10.12-8.19-2.88-16.54-5.26-25.02-7.13l-.19-153.4c25.85,10.72,46.08,21.4,57.5,48.84,7.34,17.61,8.55,53.28,28.64,60.84,7.74,2.91,18.83,2.28,26.17-1.58,5.64-2.96,8.46-8.69,9.64-14.71,6.04-30.7-16.3-72.9-34.27-96.42-21.95-28.72-53.79-42.33-87.51-51.6-1-14.17.24-39-12.05-48.77-5.25-4.17-10.73-5.32-17.18-6.04-10.6,4.09-19.02,6.67-24.68,17.25-4.89,9.12-3.6,24.85-3.52,34.9-43.82,10.78-81.95,31.11-106,70.95-16.18,26.8-22.98,58.42-15.63,89.19,8.45,35.37,32.63,64.35,63.79,82.38,18.91,10.94,38.46,16.37,59.44,21.77l.08,151.43-3.57-.77c-24.82-5.5-44.33-15.65-57.9-38.21ZM1160.56,613.59c13.98,4.57,26.21,10.13,37.83,19.38,16.93,13.48,31.09,32.3,32.68,54.53,1.53,21.35-8.81,38.39-22.52,53.73-15.26,11.24-30.97,16.28-48.85,21.66-.02-49.77.27-99.55.86-149.31ZM1103.72,554.37l-4.58,2.49c-16.44-.14-30.73-9.72-43.46-19.2-6.91-8.06-13.69-17.17-17.75-27.03-.92-2.19-1.73-4.43-2.42-6.71-.69-2.28-1.26-4.58-1.71-6.92-.45-2.34-.77-4.69-.97-7.06s-.27-4.75-.23-7.13c.05-2.38.23-4.75.53-7.11.3-2.36.72-4.7,1.27-7.02.54-2.32,1.21-4.6,1.99-6.85.79-2.25,1.69-4.45,2.71-6.6,12.74-27.21,37.41-40.9,64.61-50.14,6.26,7.84.93,130.24.02,149.28Z"/>
</svg>